<svg xmlns="http://www.w3.org/2000/svg" viewBox="0 0 1200 220" fill="none" aria-hidden="true">
  <path fill="#6f9e9a" d="M0 205c16-22 32-14 48-32 16 12 24 8 40-4 8 16 32 20 48 8 12 16 36 24 56 12V220H0z"/>
  <g transform="translate(20,130)">
    <ellipse cx="28" cy="50" rx="20" ry="28" fill="#b8a4c8" stroke="#6b5a7a" stroke-width="1.5"/>
    <path stroke="#fff8f0" stroke-width="2.5" d="M12 46h32M16 58h24"/>
    <ellipse cx="70" cy="56" rx="16" ry="22" fill="#e0a888" stroke="#a06a50" stroke-width="1.3"/>
    <circle cx="64" cy="48" r="3.5" fill="#fff8f0"/><circle cx="76" cy="58" r="3.5" fill="#fff8f0"/>
    <path stroke="#6f9e9a" stroke-width="3" d="M105 85v-45"/>
    <path fill="#d08a6a" d="M105 38c-9-2-14 7-14 14 5-2 10 0 14 5 4-5 9-7 14-5 0-7-5-16-14-14z"/>
  </g>
  <g fill="#f2e4d4" transform="translate(160,160)">
    <ellipse cx="18" cy="26" rx="13" ry="15"/>
    <ellipse cx="9" cy="6" rx="3.5" ry="11" transform="rotate(-12 9 6)"/>
    <ellipse cx="27" cy="6" rx="3.5" ry="11" transform="rotate(12 27 6)"/>
  </g>
  <g transform="translate(990,125)">
    <ellipse cx="40" cy="50" rx="22" ry="30" fill="#6f9e9a" stroke="#3f6a66" stroke-width="1.5"/>
    <path stroke="#f2e4d4" stroke-width="2.5" fill="none" d="M40 24c11 11 11 30 0 42c-11-12-11-31 0-42z"/>
    <ellipse cx="92" cy="55" rx="18" ry="26" fill="#d08a6a" stroke="#a06a50" stroke-width="1.3"/>
    <path stroke="#fff8f0" stroke-width="2.5" d="M78 55h28"/>
    <path stroke="#6f9e9a" stroke-width="3" d="M135 80v-40"/>
    <path fill="#b8a4c8" d="M135 38c-9-2-14 7-14 14 5-2 10 0 14 5 4-5 9-7 14-5 0-7-5-16-14-14z"/>
  </g>
  <path fill="#6f9e9a" d="M1200 205c-16-22-32-14-48-32-16 12-24 8-40-4-8 16-32 20-48 8-12 16-36 24-56 12V220H1200z"/>
</svg>
