<svg xmlns="http://www.w3.org/2000/svg" viewBox="0 0 1200 220" fill="none" aria-hidden="true">
  <!-- keep center clear for hero copy/CTA; art on outer edges -->
  <g transform="translate(8,130)">
    <ellipse cx="40" cy="50" rx="36" ry="30" fill="#c45c28" stroke="#2a1810" stroke-width="2"/>
    <ellipse cx="22" cy="50" rx="16" ry="26" fill="#d4724a"/>
    <ellipse cx="58" cy="50" rx="16" ry="26" fill="#a84820"/>
    <rect x="35" y="16" width="8" height="18" rx="2" fill="#3a5a28"/>
    <path fill="#1a1410" d="M26 42l8 5-8 5zm28 0l-8 5 8 5zM36 62c4 6 12 6 16 0"/>
    <ellipse cx="90" cy="68" rx="22" ry="17" fill="#b85428" stroke="#2a1810" stroke-width="1.5"/>
    <rect x="86" y="48" width="5" height="12" rx="1" fill="#3a5a28"/>
    <path fill="#1a1410" d="M82 62l6 4-6 4zm16 0l-6 4 6 4z"/>
  </g>
  <g transform="translate(1000,120)">
    <ellipse cx="54" cy="55" rx="48" ry="40" fill="#c45c28" stroke="#2a1810" stroke-width="2"/>
    <ellipse cx="30" cy="55" rx="24" ry="36" fill="#d4724a"/>
    <ellipse cx="78" cy="55" rx="24" ry="36" fill="#a84820"/>
    <rect x="48" y="12" width="10" height="22" rx="2" fill="#3a5a28"/>
    <path fill="#1a1410" d="M34 44l12 8-12 8zm40 0l-12 8 12 8z"/>
    <path fill="#1a1410" d="M46 72c6 8 18 8 24 0l-4 6c-5 4-11 4-16 0z"/>
    <ellipse cx="120" cy="78" rx="26" ry="20" fill="#7a3a1e" stroke="#2a1810" stroke-width="1.5"/>
    <rect x="116" y="54" width="6" height="14" rx="1" fill="#3a5a28"/>
  </g>
  <path fill="#8f3a18" d="M140 195c16-6 22-18 14-30 14 8 18 22 6 34 10 2 18 10 14 18-14-4-26-2-34-10-4 8-14 12-24 8 8-8 12-16 24-20z"/>
  <path fill="#c45c28" d="M920 190c18-7 24-20 16-34 16 10 20 24 8 36 12 2 20 12 16 20-14-4-26-2-34-12-4 10-16 14-26 10 10-10 14-18 20-20z"/>
  <g stroke="#e8dcc8" stroke-width="1.4" opacity="0.8" transform="translate(1085,8)">
    <path d="M115 0 L30 0 M115 0 L115 90 M115 0 L45 55"/>
    <path d="M95 20 Q75 32 62 18 M85 38 Q68 52 55 40"/>
  </g>
  <path fill="#1a1410" opacity="0.65" d="M6 215c2-36 5-62 3-85 7 10 12 7 16 2-2 18 0 40 2 62 5-16 12-20 20-16-5 20-3 42-1 62H6z"/>
</svg>
